# vtk DataFile Version 3.0
Fibers output - vtk
ASCII
DATASET UNSTRUCTURED_GRID
POINTS 694 DOUBLE
0.0 0.0 0.0
-0.07213208824396133 -0.07797680050134659 0.06706475466489792
-0.0770794153213501 -0.1528678685426712 0.17356614768505096
-0.12122006714344025 -0.2471320629119873 0.0674697756767273
-0.05786016210913658 -0.2528679072856903 0.03953838348388672
-0.22602836787700653 -0.5403679013252258 0.07044105976819992
-0.3125147819519043 -0.609632134437561 -0.012628555297851562
-0.3990013599395752 -0.7653679251670837 0.17044106125831604
-0.14713209867477417 -0.7218206524848938 -0.04825061559677124
-0.24134020507335663 -0.19713212549686432 0.14434663951396942
-0.3365388810634613 -0.334632009267807 -0.03606605529785156
-0.28849074244499207 -0.29036784172058105 0.22512856125831604
-0.34134364128112793 -0.4653678834438324 0.14043927192687988
-0.37213200330734253 -0.46106597781181335 0.12472247332334518
-0.5344333052635193 -0.6471320986747742 0.08188420534133911
-0.5721320509910583 -0.6089077591896057 0.09108879417181015
-0.5735660791397095 -0.72213214635849 -0.033431023359298706
-0.3876285254955292 -0.3096320629119873 0.2596619725227356
-0.4423161447048187 -0.4096320569515228 0.33173415064811707
-0.5007996559143066 -0.53463214635849 0.37017250061035156
-0.5728716850280762 -0.5752570629119873 0.5239261984825134
-0.562757134437561 -0.7204410433769226 0.7685663104057312
-0.6783820986747742 -0.7673160433769226 0.6868845820426941
-0.45275160670280457 -0.7846320271492004 0.47587814927101135
-0.7626615166664124 -0.7846320271492004 0.47587814927101135
-0.36588209867477417 -0.6377366185188293 0.4322299063205719
-0.6344367265701294 -0.37474295496940613 0.5016910433769226
-0.7033821940422058 -0.3516911566257477 0.49469247460365295
-0.7122110724449158 -0.47525712847709656 0.5623646974563599
-0.788190484046936 -0.39974287152290344 0.7329410910606384
-0.5191214084625244 -0.2247428447008133 0.24374257028102875
-0.6296319365501404 -0.7747429609298706 0.2048160582780838
-0.5408820509910583 -0.3566555082798004 0.24484257400035858
-0.5575599074363708 -0.3247428834438324 0.24856606125831604
-0.6158820390701294 -0.2985660135746002 0.3025001585483551
-0.6673159599304199 -0.3096320629119873 0.2596619725227356
-0.5959982872009277 -0.2747429311275482 0.36626511812210083
-0.6728752255439758 -0.24974289536476135 0.37356606125831604
-0.6908820867538452 -0.24854741990566254 0.18718485534191132
-0.7257280945777893 -0.49974289536476135 0.16106605529785156
-0.648851215839386 -0.4497428834438324 0.33294105529785156
-0.6829411387443542 -0.4096320569515228 0.33173415064811707
-0.765882134437561 -0.5110660791397095 0.41781550645828247
-0.7408819794654846 -0.5813784599304199 0.26406174898147583
-0.2204410582780838 -0.334632009267807 0.3365388810634613
-0.17317555844783783 -0.4028678834438324 0.34231606125831604
-0.17317555844783783 -0.4028678834438324 0.34231606125831604
-0.22602836787700653 -0.5403679013252258 0.5173160433769226
-0.28368598222732544 -0.6903678774833679 0.4923160672187805
-0.2627570927143097 -0.7650639414787292 0.7637614607810974
-0.3269292414188385 -0.39036789536476135 0.5512501001358032
-0.4806830883026123 -0.4153679311275482 0.5673160552978516
-0.37978217005729675 -0.5653678774833679 0.7746735215187073
-0.3033820688724518 -0.19569449126720428 0.5091068148612976
-0.07797680050134659 -0.07213208824396133 -0.06706475466489792
-0.16356594860553741 0.0028678656090050936 -0.16686569154262543
-0.14434663951396942 -0.19713212549686432 -0.13563446700572968
-0.02903137169778347 -0.3471321165561676 -0.2766910493373871
-0.08606605976819992 -0.3408820927143097 -0.27847617864608765
-0.06731601059436798 -0.4158819615840912 -0.2832809388637543
-0.25963208079338074 -0.2941930294036865 -0.22122357785701752
-0.22122357785701752 -0.25963208079338074 -0.2941930294036865
-0.3673160672187805 -0.2158821076154709 -0.3169146180152893
-0.3673160672187805 -0.2158821076154709 -0.3169146180152893
-0.7161184549331665 -0.4502570331096649 -0.4141910672187805
-0.7929953336715698 -0.40025708079338074 -0.5368356704711914
-0.267316073179245 -0.4908820688724518 -0.16796569526195526
-0.29713210463523865 -0.6266909837722778 -0.10590821504592896
-0.274076372385025 -0.7096320986747742 -0.1548536866903305
-0.42213207483291626 -0.7770759463310242 -0.024226581677794456
-0.23563793301582336 -0.65963214635849 -0.2773762345314026
-0.3422410488128662 -0.4658820629119873 -0.3601578176021576
-0.45012855529785156 -0.5158820152282715 -0.32171934843063354
-0.40861091017723083 -0.4346321225166321 -0.3854843080043793
-0.5846320986747742 -0.3704410493373871 -0.46626853942871094
-0.40861091017723083 -0.4346321225166321 -0.4839828610420227
-0.48463210463523865 -0.5296284556388855 -0.4470493495464325
-0.5579410791397095 -0.765882134437561 -0.41781550645828247
-0.7737760543823242 -0.6002570986747742 -0.416715532541275
-0.7204410433769226 -0.562757134437561 -0.7685663104057312
-0.24231605231761932 -0.6033820509910583 -0.4562540054321289
-0.3252571225166321 -0.5985660552978516 -0.5671694874763489
-0.1502571552991867 -0.7242231369018555 -0.6632656455039978
-0.10012855380773544 -0.5283821225166321 -0.6292268633842468
-0.3846321105957031 -0.6626285910606384 -0.48548784852027893
-0.3954410254955292 -0.6533820629119873 -0.5331308245658875
-0.3509533107280731 -0.734632134437561 -0.6579411625862122
-0.25815701484680176 -0.7783821225166321 -0.7253230214118958
-0.3627570867538452 -0.7554543018341064 -0.7978000640869141
-0.40025708079338074 -0.6545534133911133 -0.7929953336715698
-0.690589427947998 -0.7627571225166321 -0.7877854704856873
-0.2677665650844574 -0.7533819675445557 -0.5715692043304443
-0.2471320629119873 -0.12122006714344025 -0.0674697756767273
-0.2981003522872925 -0.20963208377361298 -0.14544105529785156
-0.26419106125831604 -0.1221320852637291 -0.028626276180148125
-0.4518541395664215 -0.1846320778131485 -0.08278165012598038
-0.4815804660320282 -0.09088211506605148 -0.1823800653219223
-0.48548784852027893 -0.3846321105957031 -0.09231605380773544
-0.6872896552085876 -0.5497428774833679 0.023566056042909622
-0.6872896552085876 -0.5497428774833679 0.023566056042909622
-0.72213214635849 -0.6454410552978516 0.033431023359298706
-0.7986975312232971 -0.6221320629119873 0.0050073713064193726
-0.7353376150131226 -0.7002570629119873 -0.21491371095180511
-0.6440464854240417 -0.35025709867477417 -0.06115999445319176
-0.7113136649131775 -0.3497428596019745 0.02044100873172283
-0.7704409956932068 -0.37213200330734253 -0.12472247332334518
-0.7017040848731995 -0.0502571240067482 -0.04434328153729439
-0.7471320033073425 -0.20530414581298828 -0.04344576224684715
-0.7641909718513489 -0.20338205993175507 -0.47066837549209595
-0.7641909718513489 -0.20338205993175507 -0.47066837549209595
-0.7752570509910583 -0.1428416222333908 -0.5047070384025574
-0.18606606125831604 -0.16588209569454193 -0.41301068663597107
-0.4326349198818207 -0.08463211357593536 -0.6798160672187805
-0.4252570569515228 -0.27512866258621216 -0.639241635799408
-0.7002570629119873 -0.21491371095180511 -0.7353376150131226
-0.4902926981449127 -0.37525704503059387 -0.6833823323249817
-0.500257134437561 -0.2126285582780838 -0.7545568346977234
-0.2020043432712555 -0.15963205695152283 -0.5944933295249939
-0.22122357785701752 -0.25963208079338074 -0.6353341937065125
-0.25025710463523865 -0.5248236656188965 -0.6824848055839539
-0.2923160493373871 -0.578382134437561 -0.7061038017272949
-0.2164187729358673 -0.5596321225166321 -0.7516910433769226
-0.10110338032245636 -0.44713208079338074 -0.7298160791397095
-0.2461451143026352 -0.16275711357593536 -0.782980740070343
-0.1221320852637291 0.05481605604290962 -0.028626276180148125
-0.1221320852637291 0.05481605604290962 -0.028626276180148125
-0.3221321105957031 -0.020319176837801933 0.047845542430877686
-0.38919106125831604 0.07786791771650314 -0.03823591396212578
-0.7391910552978516 0.10911791771650314 -0.1919897049665451
-0.43606606125831604 0.0091179134324193 -0.14394168555736542
-0.42044106125831604 0.14036788046360016 0.23083315789699554
-0.45034918189048767 0.09036791324615479 0.269271582365036
-0.45034918189048767 0.09036791324615479 0.269271582365036
-0.5752570629119873 0.18848729133605957 0.5239261984825134
-0.7978000640869141 0.3627570867538452 0.7554543018341064
-0.6752570867538452 0.25094977021217346 0.5431454181671143
-0.43833717703819275 0.3653678894042969 0.4038061201572418
-0.40861091017723083 0.4346321225166321 0.4839828610420227
-0.6008030772209167 0.5252571105957031 0.361066073179245
-0.7737760543823242 0.6002570986747742 0.416715532541275
-0.5408820509910583 -0.032331179827451706 0.24484257400035858
-0.5408820509910583 -0.032331179827451706 0.24484257400035858
-0.6391910910606384 0.16536785662174225 0.38458696007728577
-0.5584573149681091 -0.13463209569454193 0.35575804114341736
-0.7001286745071411 0.1528678685426712 0.0770794153213501
-0.27213209867477417 0.2579410672187805 -0.08628395944833755
-0.4287275969982147 0.22786788642406464 -0.09589357674121857
-0.2221321165561676 0.3974963128566742 -0.009407103061676025
-0.2610660493373871 0.6278678774833679 -0.10069842636585236
-0.29329559206962585 0.5096320509910583 0.12044115364551544
-0.4038061201572418 0.3653678894042969 -0.0947936549782753
-0.4422445297241211 0.3153679072856903 -0.025128556415438652
-0.4408820569515228 0.439191073179245 -0.2064041644334793
-0.5719742774963379 0.4747428894042969 -0.3638627231121063
-0.45338207483291626 0.5391910672187805 -0.5139116644859314
-0.56588214635849 0.7376285791397095 -0.39859631657600403
-0.7033821940422058 0.4454411566257477 -0.49469247460365295
-0.7533819675445557 0.411910742521286 -0.5715692043304443
-0.6977965831756592 0.5216178894042969 -0.6964941620826721
-0.764166533946991 0.5997428894042969 -0.7126285433769226
-0.7627571225166321 0.4551540017127991 -0.7877854704856873
-0.783385694026947 0.7997429370880127 -0.4887876510620117
-0.4263251721858978 0.7341179251670837 -0.36976751685142517
-0.5908821225166321 0.6785774230957031 -0.14874649047851562
-0.6296319365501404 0.7747429609298706 -0.2048160582780838
-0.6221320629119873 0.702601432800293 0.0050073713064193726
-0.6221320629119873 0.702601432800293 0.0050073713064193726
-0.7578567266464233 0.7778679132461548 0.014616990461945534
-0.5721320509910583 0.43593478202819824 -0.09108879417181015
-0.5719742774963379 0.4747428894042969 -0.18608494102954865
-0.773565948009491 0.32786786556243896 -0.0574551597237587
-0.7257280945777893 0.49974289536476135 -0.21106605231761932
-0.6872896552085876 0.5497428774833679 -0.27044105529785156
-0.7908821105957031 0.7313786745071411 -0.1391368806362152
-0.35794106125831604 0.4028678834438324 0.17317555844783783
-0.2908821105957031 0.15965847671031952 -0.2015993446111679
-0.3518507182598114 0.25911790132522583 -0.24964730441570282
-0.3158820867538452 0.32302188873291016 -0.3553530275821686
-0.2500523626804352 0.3403678834438324 -0.37587472796440125
-0.43353232741355896 0.34661784768104553 -0.5187163949012756
-0.50338214635849 0.4239227771759033 -0.47547322511672974
-0.38308191299438477 0.4716179072856903 -0.6580557823181152
-0.4566589295864105 0.6153679490089417 -0.6485660672187805
-0.3360660672187805 0.5372428297996521 -0.7589566111564636
-0.32838210463523865 0.5954410433769226 -0.6628605723381042
-0.45338207483291626 0.6501285433769226 -0.5139116644859314
-0.5143166780471802 0.6247429251670837 -0.6360660791397095
-0.5610659718513489 0.5716179013252258 -0.6196172833442688
-0.5911935567855835 0.6747429370880127 -0.7914903163909912
-0.37347230315208435 0.7216178774833679 -0.6772750020027161
-0.6953942179679871 0.7216178774833679 -0.6772750020027161
-0.6953942179679871 0.7216178774833679 -0.6772750020027161
-0.7449471950531006 0.6997429132461548 -0.6497486233711243
-0.7065088152885437 0.7497429251670837 -0.7829410433769226
-0.4158819615840912 0.1048160120844841 -0.2832809388637543
-0.4596320688724518 -0.008307123556733131 -0.2548571825027466
-0.5320308804512024 0.18411791324615479 -0.3073049783706665
-0.7158820033073425 0.28606605529785156 -0.34093859791755676
-0.7158820033073425 0.06262855976819992 -0.34093859791755676
-0.7785808444023132 -0.00025705882580950856 -0.4623611569404602
-0.7386375069618225 0.09661789238452911 -0.4994971752166748
-0.7818807363510132 0.2372429221868515 -0.773371160030365
0.027867842465639114 -0.0995984598994255 0.1151127964258194
0.08919105678796768 -0.20286786556243896 0.15395620465278625
0.2891910672187805 -0.24036788940429688 0.2116139680147171
0.24964730441570282 -0.25911790132522583 0.30860742926597595
0.5896885395050049 -0.3028678596019745 0.1347370147705078
0.6340317130088806 -0.2716178894042969 0.1266910582780838
0.7091178894042969 -0.45169106125831604 0.17757530510425568
0.7091178894042969 -0.5204410552978516 0.17757530510425568
0.7798160910606384 -0.4403679072856903 0.18758992850780487
0.37587472796440125 -0.3403678834438324 0.2500523626804352
0.4274251163005829 -0.4341178834438324 0.23653535544872284
0.6580557823181152 -0.4716179072856903 0.38308191299438477
0.38067951798439026 -0.4903678894042969 0.264466792345047
0.685784637928009 -0.4653678834438324 0.34134364128112793
0.685784637928009 -0.4653678834438324 0.34134364128112793
0.7781757712364197 -0.6372427940368652 0.2454410046339035
0.3926915228366852 -0.26536795496940613 0.36536771059036255
0.48027798533439636 -0.29661795496940613 0.376691073179245
0.43833717703819275 -0.3653678894042969 0.4038061201572418
0.6466178894042969 -0.5798160433769226 0.5619596838951111
0.7050038576126099 -0.6747429370880127 0.5911935567855835
0.7360660433769226 -0.7497429251670837 0.7065088152885437
0.6003981232643127 -0.7716178894042969 0.6610660552978516
0.7781757712364197 -0.6372427940368652 0.7548159956932068
0.5176164507865906 -0.7247428894042969 0.5527550578117371
0.059117939323186874 -0.3374362885951996 0.26886656880378723
0.21120896935462952 -0.35911792516708374 0.36419105529785156
0.29289060831069946 -0.7841179370880127 0.5266910791397095
0.20911787450313568 -0.4215203821659088 0.15355128049850464
0.1516910046339035 -0.7403678297996521 0.24524755775928497
0.1516910046339035 -0.7403678297996521 0.24524755775928497
0.1452440768480301 -0.7903679013252258 0.3221244513988495
0.3091179132461548 -0.5920909643173218 0.17277048528194427
0.22786788642406464 -0.6665654182434082 0.09589357674121857
0.38411790132522583 -0.6233221888542175 0.28808578848838806
0.011066055856645107 -0.14036788046360016 0.23083315789699554
0.15355128049850464 -0.20911787450313568 0.4215203821659088
0.1919897049665451 -0.10911791771650314 0.5548160672187805
0.13606606423854828 -0.049742892384529114 0.653656005859375
0.26886656880378723 -0.059117939323186874 0.7146134376525879
0.26886656880378723 -0.059117939323186874 0.7146134376525879
0.2976953983306885 0.015882015228271484 0.7938927412033081
0.14661788940429688 -0.3204410672187805 0.5379356145858765
0.43724289536476135 -0.5235660672187805 0.7973951101303101
0.22692576050758362 -0.7997429370880127 0.783385694026947
0.2869857847690582 -0.2247428447008133 0.5191214084625244
0.3841818869113922 -0.13411788642406464 0.586065948009491
0.3841818869113922 -0.13411788642406464 0.586065948009491
0.5716179013252258 -0.3079410195350647 0.6196172833442688
0.462628573179245 -0.09974287450313568 0.7305328249931335
0.42161795496940613 -0.22212104499340057 0.7349327206611633
0.00012855530076194555 -0.19036787748336792 0.3077099919319153
-0.0002025842695729807 -0.1778678447008133 0.4251284599304199
0.019016623497009277 -0.2778679132461548 0.4485660493373871
-0.03473353385925293 -0.27525708079338074 0.5287310481071472
-0.0851840004324913 -0.27525708079338074 0.5287310481071472
-0.10338204354047775 -0.30620503425598145 0.489887535572052
-0.18919101357460022 -0.22525706887245178 0.6056078672409058
-0.12838207185268402 -0.26296183466911316 0.6436414122581482
-0.14856605231761932 -0.500257134437561 0.7545568346977234
-0.23413291573524475 -0.5502570867538452 0.6776799559593201
-0.18758992850780487 -0.4403679072856903 0.7798160910606384
0.0574551597237587 -0.32786786556243896 0.773565948009491
-0.028382111340761185 -0.13294105231761932 0.605202853679657
-0.08037920296192169 -0.20025713741779327 0.7593616843223572
-0.11551779508590698 -0.10286792367696762 0.7610660791397095
-0.03606605529785156 -0.334632009267807 0.3365388810634613
0.0048160552978515625 -0.4247429072856903 0.49509745836257935
0.017316056415438652 -0.4497428834438324 0.648851215839386
-0.014191150665283203 -0.4252570569515228 0.639241635799408
0.08147914707660675 -0.5278679132461548 0.7530519366264343
0.09661789238452911 -0.49839726090431213 0.4994971752166748
0.32161790132522583 -0.6065053343772888 0.6724702715873718
-0.014616990461945534 -0.7778679132461548 0.7578567266464233
-0.07227461785078049 -0.5528678894042969 0.2821810245513916
-0.040882110595703125 -0.6329318284988403 0.22081847488880157
-0.0579410083591938 -0.6346320509910583 0.3893917500972748
-0.12993223965168 -0.7028679251670837 0.6737726330757141
-0.06588206440210342 -0.7290278673171997 0.3745722770690918
-0.19809690117835999 -0.23463211953639984 0.37497732043266296
0.027867842465639114 0.0995984598994255 -0.1151127964258194
0.027867842465639114 0.17167054116725922 -0.1151127964258194
0.3121097981929779 0.5841178894042969 -0.17981605231761932
0.3889867067337036 0.5341178774833679 -0.13919106125831604
0.2197185605764389 0.6908820867538452 -0.18718485534191132
0.337628573179245 0.672132134437561 -0.07186957448720932
0.15911786258220673 0.2893882393836975 -0.23042812943458557
0.15911786258220673 0.2893882393836975 -0.23042812943458557
0.28808578848838806 0.38411790132522583 -0.31581464409828186
0.32302188873291016 0.3158820867538452 -0.3553530275821686
0.30380263924598694 0.26588210463523865 -0.3937914967536926
0.4341178834438324 0.23653535544872284 -0.4274251163005829
0.28411784768104553 0.486066073179245 -0.3265242278575897
0.3341178894042969 0.4959948658943176 -0.3649626672267914
0.3341178894042969 0.4959948658943176 -0.3649626672267914
0.6813784837722778 0.6533820629119873 -0.5331308245658875
0.696617841720581 0.711065948009491 -0.4850827157497406
0.7716178894042969 0.6985660791397095 -0.6003981232643127
0.35054823756217957 0.48411789536476135 -0.32542428374290466
0.2985660135746002 0.6158820390701294 -0.3025001585483551
0.2544521391391754 0.6591178774833679 -0.2845834195613861
0.29661795496940613 0.7813785672187805 -0.48027798533439636
0.3966178894042969 0.7860660552978516 -0.4418395161628723
0.21601371467113495 0.7591179013252258 -0.5200188755989075
0.4341178834438324 0.36866751313209534 -0.4274251163005829
0.45481616258621216 0.4033820629119873 -0.4370347559452057
0.6501285433769226 0.45338207483291626 -0.5139116644859314
0.7173160910606384 0.4283820688724518 -0.5907885432243347
0.7314302325248718 0.5533820986747742 -0.5523499846458435
0.48411789536476135 0.32542428374290466 -0.35054823756217957
0.4466179311275482 0.5440430045127869 -0.5811789631843567
0.4466179311275482 0.5440430045127869 -0.5811789631843567
0.43724289536476135 0.7235660552978516 -0.7973951101303101
0.43724289536476135 0.7235660552978516 -0.7973951101303101
0.4551540017127991 0.7627571225166321 -0.7877854704856873
0.6216179132461548 0.5876285433769226 -0.7157134413719177
0.7781757712364197 0.6372427940368652 -0.7548159956932068
0.7170158624649048 0.7783821225166321 -0.7253230214118958
-0.06106605753302574 0.4091179072856903 -0.1343320608139038
-0.3221244513988495 0.7903679013252258 -0.1452440768480301
-0.1644633263349533 0.4278678894042969 -0.1199176087975502
-0.03383617475628853 0.45286795496940613 -0.2749738395214081
-0.06588206440210342 0.6257244944572449 -0.3745722770690918
-0.11419105529785156 0.6341179013252258 -0.40820589661598206
-0.11419105529785156 0.6341179013252258 -0.40820589661598206
-0.10169105976819992 0.7466179132461548 -0.5235212445259094
-0.2701690196990967 0.6716179251670837 -0.6388365626335144
-0.015882015228271484 0.6881870627403259 -0.2976953983306885
0.10069842636585236 0.6278678774833679 -0.2610660493373871
0.10069842636585236 0.6278678774833679 -0.251691073179245
0.16926813125610352 0.6658820509910583 -0.3793771266937256
-0.053055405616760254 0.6528679132461548 -0.0641910582780838
0.04544105753302574 0.2158821076154709 -0.3169146180152893
0.19569449126720428 0.3033820688724518 -0.5091068148612976
0.14661788940429688 0.3204410672187805 -0.5379356145858765
0.23294106125831604 0.35338208079338074 -0.5859837532043457
0.23919105529785156 0.2783820331096649 -0.7012990117073059
0.4418395161628723 0.3966178894042969 -0.7860660552978516
0.3265242278575897 0.28411784768104553 -0.486066073179245
-0.003382086753845215 0.19088974595069885 -0.45144912600517273
-0.028382111340761185 0.13294105231761932 -0.605202853679657
-0.0971960574388504 0.17161794006824493 -0.6148124933242798
-0.0016910553677007556 0.1372428685426712 -0.7541518211364746
0.07161791622638702 0.20290175080299377 -0.6532509922981262
0.12161793559789658 0.6521511077880859 -0.6916894316673279
-0.0770794153213501 0.1528678685426712 -0.17356614768505096
-0.1579410582780838 0.35911792516708374 -0.21120896935462952
-0.16588209569454193 0.18606606125831604 -0.41301068663597107
-0.1812802404165268 0.12161793559789658 -0.6916894316673279
-0.1347370147705078 0.3028678596019745 -0.5896885395050049
-0.12838207185268402 0.26296183466911316 -0.6436414122581482
-0.2500523626804352 0.3403678834438324 -0.582481324672699
-0.11071298271417618 0.5028678774833679 -0.7423160672187805
-0.4766910672187805 0.2216178923845291 -0.7109085917472839
0.23042812943458557 0.15911786258220673 -0.11401285976171494
-0.00981217622756958 -0.02213207446038723 -0.378277063369751
0.11641526222229004 0.003382086753845215 -0.45144912600517273
0.14661788940429688 0.07512855529785156 -0.5379356145858765
0.22081847488880157 -0.040882110595703125 -0.6329318284988403
0.2173161506652832 -0.2372429221868515 -0.773371160030365
0.24974289536476135 -0.0329410545527935 -0.6728752255439758
-0.025257078930735588 -0.12362246960401535 -0.6248272061347961
-0.05169105529785156 -0.07838211208581924 -0.6820797920227051
-0.10590821504592896 -0.29713210463523865 -0.6235659718513489
-0.04674568399786949 -0.16275711357593536 -0.782980740070343
0.025123978033661842 0.14713209867477417 0.04825061559677124
-0.04713207483291626 0.22452345490455627 0.08668901026248932
-0.059632062911987305 0.27356600761413574 0.24044275283813477
0.015367872081696987 0.19231605529785156 0.47107329964637756
0.08278165012598038 0.1846320778131485 0.4518541395664215
0.0851840004324913 0.27525708079338074 0.5287310481071472
0.047845542430877686 0.3221321105957031 0.23893776535987854
-0.18278513848781586 0.35963210463523865 0.44554439187049866
-0.5252571105957031 0.329816073179245 0.6008030772209167
-0.17798033356666565 0.3971320688724518 0.4298160672187805
-0.13954176008701324 0.4971320629119873 0.3950939178466797
-0.13954176008701324 0.4971320629119873 0.3950939178466797
-0.06266500800848007 0.547132134437561 0.44794678688049316
-0.15876106917858124 0.5971320867538452 0.4641910493373871
-0.2164187729358673 0.5596321225166321 0.5360660552978516
-0.22525706887245178 0.617315948009491 0.6056078672409058
-0.23563793301582336 0.65963214635849 0.6929918527603149
-0.3252571225166321 0.7751285433769226 0.5671694874763489
-0.12525707483291626 0.6376285552978516 0.5863887667655945
-0.08188420534133911 0.6471320986747742 0.5344333052635193
-0.07076960057020187 0.6497429013252258 0.6680704355239868
-0.3751285672187805 0.6247429251670837 0.5143166780471802
-0.37525704503059387 0.6161150336265564 0.4902926981449127
-0.37525704503059387 0.6833823323249817 0.4902926981449127
-0.3509533107280731 0.734632134437561 0.4829411506652832
-0.47587814927101135 0.7846320271492004 0.45275160670280457
-0.5176164507865906 0.7247428894042969 0.5527550578117371
0.014211839996278286 0.5221320390701294 0.7251284718513489
-0.33294105529785156 0.4497428834438324 0.648851215839386
-0.4911900460720062 0.6997429132461548 0.7449471950531006
-0.4502570331096649 0.4141910672187805 0.7161184549331665
-0.3627570867538452 0.6041029691696167 0.7978000640869141
-0.5502570867538452 0.5656644701957703 0.6776799559593201
-0.750257134437561 0.4876285493373871 0.658460795879364
-0.6502570509910583 0.7766910791397095 0.6968992352485657
-0.12356605380773544 0.5028678774833679 0.11071298271417618
-0.04344576224684715 0.7471320033073425 0.20530414581298828
-0.07044105976819992 0.5403679013252258 0.22602836787700653
-0.157256081700325 0.5903679132461548 0.30290520191192627
-0.157256081700325 0.5903679132461548 0.30290520191192627
-0.17044106125831604 0.7653679251670837 0.3990013599395752
-0.16837070882320404 0.7971320748329163 0.4047035276889801
-0.08463211357593536 0.7954410910606384 0.4326349198818207
0.012628555297851562 0.609632134437561 0.3125147819519043
-0.2548571825027466 0.4596320688724518 0.17647528648376465
-0.29713210463523865 0.6266909837722778 0.10590821504592896
-0.31821703910827637 0.7903679013252258 0.3221244513988495
-0.40481606125831604 0.6403679251670837 0.2068091630935669
-0.6846320629119873 0.7506495118141174 0.42783018946647644
-0.5376285910606384 0.6403679251670837 0.2068091630935669
-0.6737726330757141 0.7028679251670837 0.12993223965168
-0.7971320748329163 0.5776764750480652 0.16837070882320404
-0.5047070384025574 0.7752570509910583 0.2077064961194992
-0.46626853942871094 0.5846320986747742 0.3704410493373871
-0.42783018946647644 0.6846320629119873 0.022721577435731888
0.1778678447008133 0.20794101059436798 0.0002025842695729807
0.2579410672187805 0.27213209867477417 -0.08628395944833755
0.2766910493373871 0.3471321165561676 0.02903137169778347
0.25575461983680725 0.42213207483291626 0.024226581677794456
0.35286790132522583 0.6017005443572998 0.09629859775304794
0.25481605529785156 0.4721321165561676 -0.05265036225318909
0.3778678774833679 0.4575563967227936 0.019421791657805443
0.3778678774833679 0.4575563967227936 0.019421791657805443
0.3454410135746002 0.5221320390701294 -0.014211839996278286
0.5043020248413086 0.4966178834438324 -0.09856605529785156
0.6841179132461548 0.6001285910606384 -0.33132901787757874
0.7589566111564636 0.5372428297996521 -0.3360660672187805
0.7841179370880127 0.6548160910606384 -0.29289060831069946
0.6091179251670837 0.676175057888031 -0.15835607051849365
0.6785774230957031 0.5908821225166321 -0.14874649047851562
0.7278679013252258 0.6141910552978516 -0.06225991249084473
0.7589566111564636 0.5372428297996521 -0.11262855678796768
0.7591179013252258 0.5200188755989075 -0.21601371467113495
0.46586355566978455 0.5966178774833679 -0.053952742367982864
0.45286795496940613 0.7458447217941284 0.03383617475628853
0.6454410552978516 0.72213214635849 -0.033431023359298706
0.5523499846458435 0.5533820986747742 0.11161041259765625
0.5523499846458435 0.5533820986747742 0.11161041259765625
0.6028679013252258 0.5751285552978516 0.14915139973163605
0.5632621049880981 0.7596321105957031 0.19719955325126648
0.5776764750480652 0.7971320748329163 0.16837070882320404
0.6305294036865234 0.7596321105957031 0.19719955325126648
0.7493470907211304 0.6627570986747742 0.44314199686050415
0.5528678894042969 0.32782670855522156 0.07227461785078049
0.7704409956932068 0.37213200330734253 -0.12472247332334518
0.7298160791397095 0.44713208079338074 0.10110338032245636
0.7528678774833679 0.19329214096069336 0.09149374812841415
0.07669105380773544 0.3471321165561676 0.02903137169778347
0.13137856125831604 0.672132134437561 -0.07186957448720932
0.11731614917516708 0.7908821105957031 -0.1391368806362152
0.052867915481328964 0.7338327169418335 0.03864097595214844
0.2778679132461548 0.6641910672187805 -0.019016623497009277
-0.02213207446038723 0.378277063369751 0.00981217622756958
0.17647528648376465 0.4596320688724518 0.2548571825027466
0.16796569526195526 0.4908820688724518 0.267316073179245
0.014211839996278286 0.5221320390701294 0.3454410135746002
0.18718485534191132 0.6908820867538452 0.2197185605764389
0.26536795496940613 0.5104092955589294 0.36536771059036255
0.25094977021217346 0.6752570867538452 0.5431454181671143
0.26406174898147583 0.7408819794654846 0.4751284718513489
0.3497428596019745 0.6766909956932068 0.7113136649131775
0.39974287152290344 0.7329410910606384 0.788190484046936
0.4876285493373871 0.750257134437561 0.658460795879364
0.6153679490089417 0.6485660672187805 0.4566589295864105
0.6100077033042908 0.6283820867538452 0.4743732511997223
0.6747429370880127 0.7050038576126099 0.5911935567855835
0.7766910791397095 0.6502570509910583 0.6968992352485657
0.7497429251670837 0.7829410433769226 0.7065088152885437
0.4153679311275482 0.5126285552978516 0.4806830883026123
0.407941073179245 0.5846320986747742 0.46626853942871094
0.5247429013252258 0.5923160910606384 0.533535897731781
0.16419115662574768 0.6971321702003479 0.12032265961170197
-0.02992873266339302 0.0028678656090050936 0.16356594860553741
-0.20963208377361298 0.03919105604290962 0.2981003522872925
-0.20963208377361298 0.03919105604290962 0.2981003522872925
-0.2020043432712555 0.15963205695152283 0.3470458686351776
-0.34614846110343933 -0.0653679147362709 0.3626285493373871
-0.34614846110343933 -0.0653679147362709 0.3626285493373871
-0.470441073179245 -0.12525707483291626 0.5863887667655945
-0.44073960185050964 -0.03463209420442581 0.394196480512619
-0.47107329964637756 -0.015367872081696987 0.32669106125831604
-0.5767790675163269 -0.0747428759932518 0.5141910910606384
-0.6376285552978516 -0.12525707483291626 0.5863887667655945
-0.7283821105957031 -0.06596479564905167 0.6484460830688477
-0.7689712643623352 -0.1997428834438324 0.7626285552978516
-0.7252570986747742 0.12981605529785156 0.5815839171409607
0.3153679072856903 0.025128556415438652 0.4422445297241211
0.5966178774833679 -0.17407289147377014 0.46586355566978455
0.25925692915916443 0.14088211953639984 0.4647636413574219
0.44073960185050964 0.03463209420442581 0.394196480512619
0.1997428834438324 0.19544105231761932 0.7689712643623352
0.2976953983306885 0.015882015228271484 0.6881870627403259
0.48137855529785156 0.0752570852637291 0.5479503870010376
0.5251285433769226 -0.049742892384529114 0.653656005859375
0.4599587917327881 0.17525704205036163 0.5095118880271912
0.4747428894042969 0.18608494102954865 0.5719742774963379
0.5667644739151001 0.1533821076154709 0.4695684611797333
-0.05875759199261665 -0.03463209420442581 0.394196480512619
-0.08668901026248932 0.04713207483291626 0.54164057970047
-0.00981217622756958 0.02213207446038723 0.5680668950080872
-0.2020043432712555 0.15963205695152283 0.5944933295249939
-0.18294106423854828 0.17474287748336792 0.6152175068855286
-0.36146029829978943 0.2997429072856903 0.7497520446777344
-0.12512743473052979 0.09713206440210342 0.6704410910606384
-0.12512743473052979 0.09713206440210342 0.6704410910606384
0.08037920296192169 0.20025713741779327 0.7593616843223572
-0.15245123207569122 -0.00025705882580950856 0.7785808444023132
-0.2788811922073364 0.10963203758001328 0.6751284599304199
-0.19239477813243866 -0.040367912501096725 0.5128116607666016
-0.41106605529785156 0.12474286556243896 0.53834068775177
-0.35025709867477417 0.06115999445319176 0.6440464854240417
-0.462628573179245 0.09974287450313568 0.7305328249931335
-0.7362350821495056 0.14974288642406464 0.6920944452285767
-0.4326349198818207 0.08463211357593536 0.7954410910606384
-0.4623611569404602 -0.00025705882580950856 0.7785808444023132
-0.49990230798721313 -0.024742860347032547 0.6569558382034302
-0.49990230798721313 -0.024742860347032547 0.6569558382034302
-0.5767790675163269 -0.0747428759932518 0.7923160791397095
-0.562757134437561 -0.31106606125831604 0.7685663104057312
-0.23762856423854828 -0.10025712102651596 0.7401424646377563
0.1055031567811966 -0.17213205993175507 -0.001099920249544084
0.1055031567811966 -0.17213205993175507 -0.001099920249544084
0.1055031567811966 -0.17213205993175507 -0.06836714595556259
0.08762850612401962 -0.5778679251670837 -0.004602241795510054
-0.005904769990593195 -0.7721320986747742 -0.11030793190002441
0.22562332451343536 -0.6408820748329163 -0.1110660582780838
0.07557439804077148 -0.7778679132461548 0.014616990461945534
0.10286792367696762 -0.3126285672187805 -0.11551779508590698
-0.009632110595703125 -0.5272260904312134 -0.3173196017742157
0.040367912501096725 -0.5128116607666016 -0.19239477813243866
0.09036791324615479 -0.6209197640419006 -0.269271582365036
0.16536785662174225 -0.6391910910606384 -0.38458696007728577
0.2153678983449936 -0.5891910791397095 -0.4614637494087219
0.13082967698574066 -0.7966179251670837 -0.44664430618286133
0.3247428834438324 -0.7876285910606384 -0.5575599074363708
0.2845834195613861 -0.6591178774833679 -0.2544521391391754
0.29036784172058105 -0.6204410791397095 -0.28849074244499207
0.400128573179245 -0.6841179132461548 -0.33132901787757874
-0.026691008359193802 -0.6158820390701294 -0.3025001585483551
-0.10963203758001328 -0.6751284599304199 -0.2788811922073364
-0.04344576224684715 -0.7471320033073425 -0.3398387134075165
-0.12032265961170197 -0.6971321702003479 -0.40169116854667664
0.27847617864608765 -0.3408820927143097 -0.08606605976819992
0.3649626672267914 -0.3341178894042969 0.05155038833618164
0.4287275969982147 -0.22786788642406464 -0.09589357674121857
0.5920909643173218 -0.3091179132461548 -0.17277048528194427
0.6676653623580933 -0.47838208079338074 -0.2605593800544739
0.7891910672187805 -0.28411784768104553 -0.3265242278575897
0.5778679251670837 -0.3173160254955292 0.004602241795510054
0.5778679251670837 -0.3173160254955292 0.004602241795510054
0.5955933332443237 -0.3716178834438324 0.010709571652114391
0.5811789631843567 -0.4466179311275482 0.0491480827331543
0.7001990675926208 -0.47786790132522583 -0.04304073005914688
0.6641910672187805 -0.2778679132461548 -0.019016623497009277
0.6244221329689026 -0.22838206589221954 -0.04194073751568794
0.6528679132461548 -0.16731606423854828 -0.053055405616760254
0.7637614607810974 -0.2627570927143097 -0.015514373779296875
0.32786786556243896 -0.4579409658908844 0.0574551597237587
0.2821810245513916 -0.5528678894042969 0.07227461785078049
0.3121097981929779 -0.5841178894042969 0.10794105380773544
0.23523293435573578 -0.5591179132461548 0.029816055670380592
0.32061949372291565 -0.6778678894042969 -0.023821426555514336
0.3889867067337036 -0.5341178774833679 0.13919106125831604
0.5091179013252258 -0.5752741098403931 0.19679446518421173
0.5591179132461548 -0.5766910910606384 0.23523293435573578
0.5619596838951111 -0.6466178894042969 0.22356605529785156
0.5278679132461548 -0.7530519366264343 0.08147914707660675
0.6292268633842468 -0.5283821225166321 -0.10012855380773544
0.7528678774833679 -0.6185173392295837 -0.09149374812841415
0.6449438333511353 -0.7591179013252258 -0.21601371467113495
0.7794783115386963 -0.7966179251670837 -0.44664430618286133
0.5903679132461548 -0.7962951064109802 -0.30290520191192627
0.22452345490455627 0.04713207483291626 0.08668901026248932
0.20286786556243896 0.08919105678796768 0.15395620465278625
0.24134020507335663 0.19713212549686432 0.14434663951396942
0.22669105231761932 0.2846321165561676 0.41341572999954224
0.3553530275821686 0.3158820867538452 0.6617606282234192
0.3937914967536926 0.26588210463523865 0.6593582034111023
0.3542531132698059 0.25025710463523865 0.6824848055839539
0.3601578176021576 0.4658820629119873 0.6713702082633972
0.5907885432243347 0.4283820688724518 0.7173160910606384
0.1620609313249588 0.47525712847709656 0.5623646974563599
0.09108879417181015 0.5721320509910583 0.6089077591896057
0.14974288642406464 0.4935924708843231 0.6920944452285767
0.2064041644334793 0.4408820569515228 0.7579410672187805
0.2126285582780838 0.500257134437561 0.7545568346977234
0.0923912525177002 0.6002570986747742 0.7737760543823242
0.18368254601955414 0.6252570152282715 0.6200222969055176
0.12981605529785156 0.7252570986747742 0.5815839171409607
0.1391368806362152 0.7908821105957031 0.7313786745071411
0.2015993446111679 0.2908821105957031 0.6689678430557251
0.4091179072856903 0.06106605753302574 -0.1343320608139038
0.4278678894042969 0.01791677437722683 -0.1199176087975502
0.6148124933242798 0.17161794006824493 -0.23173056542873383
0.5841178894042969 0.17981605231761932 -0.3121097981929779
0.7194182276725769 0.11588211357593536 -0.33613377809524536
0.773371160030365 0.2372429221868515 -0.2173161506652832
0.3998987376689911 -0.040367912501096725 0.19239477813243866
0.4403679072856903 0.05012855678796768 0.18758992850780487
0.3860660195350647 0.059632062911987305 0.24044275283813477
0.3860660195350647 0.059632062911987305 0.24044275283813477
0.5653678774833679 0.2101089507341385 0.37978217005729675
0.6153679490089417 0.21731606125831604 0.4566589295864105
0.7205182909965515 0.17838214337825775 0.5048161745071411
0.617315948009491 0.22525706887245178 0.6056078672409058
0.7410399317741394 0.3002570569515228 0.7209233045578003
0.665367841720581 0.14764642715454102 0.36056289076805115
0.6903678774833679 0.32512855529785156 0.28368598222732544
0.6626285910606384 0.3846321105957031 0.48548784852027893
0.4091179072856903 -0.15481606125831604 0.1343320608139038
0.7610660791397095 -0.10286792367696762 0.11551779508590698
0.7341179251670837 -0.07317199558019638 0.36976751685142517
0.7341179251670837 -0.07317199558019638 0.36976751685142517
0.7966179251670837 -0.13082967698574066 0.44664430618286133
0.7301279306411743 -0.021617913618683815 0.47981616854667664
0.7923160791397095 -0.0747428759932518 0.5767790675163269
0.7242231369018555 0.1502571552991867 0.6632656455039978
0.1823800653219223 -0.09088211506605148 -0.17887774109840393
0.24036788940429688 -0.08294105529785156 -0.2116139680147171
0.4719708561897278 -0.034117866307497025 -0.4226202964782715
0.4247429072856903 -0.0048160552978515625 -0.49509745836257935
0.5153679251670837 -0.16262856125831604 -0.418220579624176
0.5667644739151001 -0.1533821076154709 -0.4695684611797333
0.6891910433769226 -0.23411791026592255 -0.40340110659599304
0.489887535572052 -0.10338204354047775 -0.5560548901557922
0.49974289536476135 -0.16106605529785156 -0.7257280945777893
0.4766910672187805 -0.2216178923845291 -0.7109085917472839
0.5829410552978516 -0.2216178923845291 -0.7109085917472839
0.5475452542304993 -0.25338202714920044 -0.7501285672187805
0.7205182909965515 -0.17838214337825775 -0.7016911506652832
0.7985660433769226 -0.1372428685426712 -0.7541518211364746
0.7997429370880127 -0.22692576050758362 -0.783385694026947
0.7466179132461548 0.10169105976819992 -0.5235212445259094
0.3548160493373871 -0.0091179134324193 -0.14394168555736542
0.35286790132522583 -0.05635518953204155 -0.09629859775304794
0.43606606125831604 -0.0091179134324193 -0.14394168555736542
0.45144912600517273 -0.003382086753845215 -0.19088974595069885
0.6028679013252258 -0.0485660545527935 -0.14915139973163605
0.6528679132461548 -0.0641910582780838 -0.053055405616760254
0.7301279306411743 0.021617913618683815 -0.2626286447048187
0.7925902605056763 0.037242915481328964 -0.0954410582780838
0.34574341773986816 0.08411791175603867 -0.4671660363674164
0.2716178894042969 0.1266910582780838 -0.6340317130088806
0.3716178834438324 0.003502368927001953 -0.5955933332443237
0.33613377809524536 -0.11588211357593536 -0.7194182276725769
0.5283259749412537 -0.053382109850645065 -0.7098086476325989
0.5283259749412537 -0.053382109850645065 -0.7098086476325989
0.5501285791397095 -0.037242915481328964 -0.7925902605056763
0.6724702715873718 0.32161790132522583 -0.6065053343772888
0.7079410552978516 0.07838211208581924 -0.6820797920227051
0.7079410552978516 0.07838211208581924 -0.6820797920227051
0.7541518211364746 0.1372428685426712 -0.7985660433769226
0.16316084563732147 -0.19088207185268402 -0.2813785672187805
0.37474295496940613 -0.27981606125831604 -0.6344367265701294
0.37474295496940613 -0.27981606125831604 -0.6344367265701294
0.5091068148612976 -0.3033820688724518 -0.7674662470817566
0.5608596801757812 -0.32161790132522583 -0.6724702715873718
0.6628605723381042 -0.32838210463523865 -0.5954410433769226
0.5907885432243347 -0.4283820688724518 -0.7485660910606384
0.11536788195371628 -0.2989978492259979 -0.4230252802371979
0.11536788195371628 -0.2989978492259979 -0.4230252802371979
0.22981606423854828 -0.5466179251670837 -0.5427404642105103
0.12474286556243896 -0.3829410672187805 -0.53834068775177
0.17474287748336792 -0.46731606125831604 -0.6152175068855286
0.08998880535364151 -0.5216178894042969 -0.6964941620826721
0.14874649047851562 -0.5908821225166321 -0.68097984790802
0.32171934843063354 -0.5158820152282715 -0.6923160552978516
0.42669105529785156 -0.6216179132461548 -0.7157134413719177
0.3497428596019745 -0.6766909956932068 -0.7113136649131775
0.3793771266937256 -0.6658820509910583 -0.7890879511833191
0.2997429072856903 -0.7698687314987183 -0.7497520446777344
-0.024226581677794456 -0.42213207483291626 -0.7770759463310242
0.4903678894042969 -0.38067951798439026 -0.264466792345047
0.43112999200820923 -0.4591178894042969 -0.27367138862609863
0.39036789536476135 -0.5512501001358032 -0.3269292414188385
0.4903678894042969 -0.5848837494850159 -0.264466792345047
0.665367841720581 -0.3326314389705658 -0.36056289076805115
0.5859837532043457 -0.35338208079338074 -0.47356605529785156
0.7653679251670837 -0.5516910552978516 -0.3990013599395752
0.5153679251670837 -0.5298160910606384 -0.418220579624176
0.5704410672187805 -0.4966178834438324 -0.5043020248413086
0.5247429013252258 -0.5923160910606384 -0.533535897731781
0.5747429728507996 -0.6298160552978516 -0.6104127764701843
0.7493470907211304 -0.6627570986747742 -0.6473461985588074
0.6868845820426941 -0.6783820986747742 -0.7673160433769226
0.6329410672187805 -0.7466179132461548 -0.5235212445259094
0.47547322511672974 -0.50338214635849 -0.5536524653434753
CELLS 659 1977
2 1 0
2 2 1
2 3 1
2 4 3
2 5 3
2 6 5
2 7 5
2 8 5
2 9 1
2 10 9
2 11 9
2 12 11
2 13 12
2 14 12
2 15 14
2 16 14
2 17 11
2 18 17
2 19 18
2 20 19
2 21 20
2 22 20
2 23 19
2 24 19
2 25 19
2 26 18
2 27 26
2 28 26
2 29 26
2 30 17
2 31 17
2 32 17
2 33 32
2 34 33
2 35 34
2 36 34
2 37 34
2 38 33
2 39 32
2 40 32
2 41 40
2 42 40
2 43 40
2 44 11
2 45 44
2 47 45
2 48 47
2 49 47
2 50 44
2 51 50
2 52 50
2 53 11
2 54 0
2 55 54
2 56 54
2 57 56
2 58 57
2 59 57
2 60 56
2 61 60
2 62 60
2 64 62
2 65 62
2 66 60
2 67 66
2 68 67
2 69 67
2 70 66
2 71 60
2 72 71
2 73 71
2 74 73
2 75 73
2 76 73
2 77 76
2 78 76
2 79 76
2 80 71
2 81 80
2 82 80
2 83 71
2 84 71
2 85 84
2 86 85
2 87 86
2 88 86
2 89 85
2 90 85
2 91 84
2 92 54
2 93 92
2 94 92
2 95 92
2 96 95
2 97 95
2 98 97
2 100 98
2 101 98
2 102 97
2 103 95
2 104 103
2 105 103
2 106 95
2 107 95
2 108 95
2 110 108
2 111 54
2 112 111
2 113 111
2 114 113
2 115 113
2 116 113
2 117 111
2 118 117
2 119 118
2 120 119
2 121 119
2 122 118
2 123 117
2 124 0
2 126 124
2 127 126
2 128 127
2 129 127
2 130 126
2 131 130
2 133 131
2 134 133
2 135 133
2 136 130
2 137 136
2 138 136
2 139 130
2 140 126
2 142 140
2 143 140
2 144 140
2 145 124
2 146 145
2 147 145
2 148 147
2 149 147
2 150 145
2 151 150
2 152 150
2 153 152
2 154 153
2 155 153
2 156 153
2 157 156
2 158 156
2 159 158
2 160 158
2 161 153
2 162 152
2 163 152
2 164 163
2 165 163
2 167 165
2 168 150
2 169 168
2 170 168
2 171 168
2 172 171
2 173 171
2 174 145
2 175 124
2 176 175
2 177 176
2 178 177
2 179 177
2 180 179
2 181 179
2 182 181
2 183 181
2 184 181
2 185 176
2 186 185
2 187 186
2 188 186
2 189 185
2 190 185
2 192 190
2 193 190
2 194 175
2 195 194
2 196 194
2 197 196
2 198 196
2 199 198
2 200 198
2 201 194
2 202 0
2 203 202
2 204 203
2 205 204
2 206 204
2 207 206
2 208 206
2 209 208
2 210 208
2 211 204
2 212 211
2 213 212
2 214 212
2 215 211
2 217 215
2 218 204
2 219 218
2 220 218
2 221 220
2 222 221
2 223 222
2 224 222
2 225 221
2 226 220
2 227 203
2 228 227
2 229 227
2 230 203
2 231 230
2 233 231
2 234 230
2 235 234
2 236 234
2 237 202
2 238 237
2 239 238
2 240 239
2 241 239
2 243 241
2 244 238
2 245 244
2 246 244
2 247 238
2 248 247
2 250 248
2 251 248
2 252 247
2 253 237
2 254 253
2 255 254
2 256 254
2 257 256
2 258 257
2 259 257
2 260 257
2 261 256
2 262 261
2 263 261
2 264 256
2 265 254
2 266 265
2 267 265
2 268 253
2 269 268
2 270 269
2 271 270
2 272 270
2 273 269
2 274 273
2 275 273
2 276 268
2 277 276
2 278 276
2 279 278
2 280 278
2 281 237
2 282 0
2 283 282
2 284 283
2 285 284
2 286 284
2 287 284
2 288 283
2 290 288
2 291 290
2 292 291
2 293 291
2 294 290
2 295 294
2 297 295
2 298 297
2 299 297
2 300 294
2 301 294
2 302 301
2 303 301
2 304 301
2 305 294
2 306 290
2 307 306
2 308 306
2 309 308
2 310 308
2 311 306
2 312 290
2 314 312
2 316 314
2 317 312
2 318 317
2 319 317
2 320 283
2 321 320
2 322 320
2 323 320
2 324 323
2 325 324
2 327 325
2 328 325
2 329 324
2 330 323
2 331 330
2 332 330
2 333 320
2 334 282
2 335 334
2 336 335
2 337 335
2 338 337
2 339 337
2 340 335
2 341 334
2 342 341
2 343 342
2 344 342
2 345 341
2 346 334
2 347 282
2 348 347
2 349 347
2 350 349
2 351 349
2 352 351
2 353 351
2 354 351
2 355 349
2 356 282
2 357 282
2 358 357
2 359 358
2 360 358
2 361 360
2 362 360
2 363 357
2 364 363
2 365 363
2 366 363
2 367 0
2 368 367
2 369 368
2 370 369
2 371 370
2 372 370
2 373 369
2 374 369
2 375 374
2 376 374
2 377 376
2 379 377
2 380 377
2 381 376
2 382 381
2 383 382
2 384 382
2 385 381
2 386 385
2 387 385
2 388 381
2 389 388
2 390 388
2 391 390
2 392 390
2 393 388
2 394 374
2 395 374
2 396 395
2 397 395
2 398 395
2 399 395
2 400 399
2 401 399
2 402 368
2 403 402
2 404 402
2 405 404
2 407 405
2 408 407
2 409 407
2 410 404
2 411 402
2 412 402
2 413 412
2 414 412
2 415 414
2 416 414
2 417 416
2 418 416
2 419 414
2 420 414
2 421 412
2 422 367
2 423 422
2 424 422
2 425 424
2 426 425
2 427 425
2 428 424
2 430 428
2 431 428
2 432 431
2 433 432
2 434 432
2 435 431
2 436 431
2 437 436
2 438 436
2 439 436
2 440 428
2 441 440
2 442 440
2 443 428
2 445 443
2 446 443
2 447 446
2 448 446
2 449 424
2 450 422
2 451 450
2 452 450
2 453 450
2 454 367
2 455 454
2 456 455
2 457 455
2 458 455
2 459 454
2 460 454
2 461 460
2 462 461
2 463 461
2 464 460
2 465 464
2 466 465
2 467 465
2 468 467
2 469 467
2 470 464
2 471 470
2 472 470
2 473 472
2 474 472
2 475 464
2 476 475
2 477 475
2 478 454
2 479 0
2 480 479
2 482 480
2 483 480
2 485 483
2 486 483
2 487 486
2 488 486
2 489 488
2 490 489
2 491 489
2 492 488
2 493 479
2 494 493
2 495 493
2 496 493
2 497 493
2 498 493
2 499 493
2 500 499
2 501 499
2 502 499
2 503 499
2 504 479
2 505 504
2 506 505
2 507 505
2 508 507
2 509 507
2 510 505
2 512 510
2 513 510
2 514 510
2 515 504
2 516 515
2 517 515
2 518 517
2 519 518
2 520 518
2 521 518
2 522 517
2 524 522
2 525 515
2 526 515
2 527 0
2 529 527
2 530 527
2 531 530
2 532 530
2 533 530
2 534 527
2 535 534
2 536 534
2 537 536
2 538 537
2 539 538
2 540 538
2 541 538
2 542 537
2 543 542
2 544 542
2 545 536
2 546 545
2 547 545
2 548 545
2 549 527
2 550 549
2 551 549
2 552 551
2 553 552
2 554 552
2 555 551
2 557 555
2 558 557
2 559 557
2 560 555
2 561 551
2 562 561
2 563 561
2 564 549
2 565 564
2 566 565
2 567 565
2 568 565
2 569 564
2 570 569
2 571 570
2 572 570
2 573 569
2 574 549
2 575 574
2 576 574
2 577 576
2 578 576
2 579 0
2 580 579
2 581 580
2 582 580
2 583 582
2 584 583
2 585 583
2 586 583
2 587 583
2 588 582
2 589 588
2 590 588
2 591 590
2 592 590
2 593 590
2 594 588
2 595 594
2 596 594
2 597 582
2 598 579
2 599 598
2 600 598
2 601 600
2 602 600
2 603 600
2 604 579
2 605 604
2 606 604
2 608 606
2 609 608
2 610 609
2 611 609
2 612 609
2 613 608
2 614 608
2 615 608
2 616 604
2 617 604
2 618 604
2 620 618
2 621 618
2 622 621
2 623 621
2 624 0
2 625 624
2 626 625
2 627 626
2 628 626
2 629 628
2 630 628
2 631 626
2 632 631
2 633 632
2 634 632
2 635 632
2 636 631
2 637 636
2 638 636
2 639 626
2 640 625
2 641 640
2 642 640
2 643 642
2 644 642
2 645 644
2 646 644
2 647 644
2 648 625
2 649 648
2 650 648
2 651 650
2 652 650
2 654 652
2 655 648
2 656 648
2 658 656
2 659 624
2 660 659
2 662 660
2 663 660
2 664 663
2 665 663
2 666 659
2 668 666
2 669 666
2 670 669
2 671 670
2 672 670
2 673 670
2 674 673
2 675 673
2 676 675
2 677 675
2 678 669
2 679 624
2 680 679
2 681 680
2 682 680
2 683 679
2 684 683
2 685 683
2 686 679
2 687 686
2 688 686
2 689 688
2 690 689
2 691 689
2 692 688
2 693 686
CELL_TYPES 659
3
3
3
3
3
3
3
3
3
3
3
3
3
3
3
3
3
3
3
3
3
3
3
3
3
3
3
3
3
3
3
3
3
3
3
3
3
3
3
3
3
3
3
3
3
3
3
3
3
3
3
3
3
3
3
3
3
3
3
3
3
3
3
3
3
3
3
3
3
3
3
3
3
3
3
3
3
3
3
3
3
3
3
3
3
3
3
3
3
3
3
3
3
3
3
3
3
3
3
3
3
3
3
3
3
3
3
3
3
3
3
3
3
3
3
3
3
3
3
3
3
3
3
3
3
3
3
3
3
3
3
3
3
3
3
3
3
3
3
3
3
3
3
3
3
3
3
3
3
3
3
3
3
3
3
3
3
3
3
3
3
3
3
3
3
3
3
3
3
3
3
3
3
3
3
3
3
3
3
3
3
3
3
3
3
3
3
3
3
3
3
3
3
3
3
3
3
3
3
3
3
3
3
3
3
3
3
3
3
3
3
3
3
3
3
3
3
3
3
3
3
3
3
3
3
3
3
3
3
3
3
3
3
3
3
3
3
3
3
3
3
3
3
3
3
3
3
3
3
3
3
3
3
3
3
3
3
3
3
3
3
3
3
3
3
3
3
3
3
3
3
3
3
3
3
3
3
3
3
3
3
3
3
3
3
3
3
3
3
3
3
3
3
3
3
3
3
3
3
3
3
3
3
3
3
3
3
3
3
3
3
3
3
3
3
3
3
3
3
3
3
3
3
3
3
3
3
3
3
3
3
3
3
3
3
3
3
3
3
3
3
3
3
3
3
3
3
3
3
3
3
3
3
3
3
3
3
3
3
3
3
3
3
3
3
3
3
3
3
3
3
3
3
3
3
3
3
3
3
3
3
3
3
3
3
3
3
3
3
3
3
3
3
3
3
3
3
3
3
3
3
3
3
3
3
3
3
3
3
3
3
3
3
3
3
3
3
3
3
3
3
3
3
3
3
3
3
3
3
3
3
3
3
3
3
3
3
3
3
3
3
3
3
3
3
3
3
3
3
3
3
3
3
3
3
3
3
3
3
3
3
3
3
3
3
3
3
3
3
3
3
3
3
3
3
3
3
3
3
3
3
3
3
3
3
3
3
3
3
3
3
3
3
3
3
3
3
3
3
3
3
3
3
3
3
3
3
3
3
3
3
3
3
3
3
3
3
3
3
3
3
3
3
3
3
3
3
3
3
3
3
3
3
3
3
3
3
3
3
3
3
3
3
3
3
3
3
3
3
3
3
3
3
3
3
3
3
3
3
3
3
3
3
3
3
3
3
3
3
3
3
3
3
3
3
3
3
3
3
3
3
3
3
3
3
3
3
3
3
3
3
3
3
3
3
3
3
3
3
3
3
3
3
3
3
3
3
3
3
3
3
3
3
3
3
3
3
3
3
3
3
3
3
3
3
3
3
3
3
3
3
3
3
3
3
3
3
3
3
3
3
3
3
3
3
3
3
3
3
3
3
3
3
3
3
3
3
3
3
CELL_DATA 659
SCALARS length float 
LOOKUP_TABLE default 
0.1256228517791424
0.13029080870427537
0.17613431385073275
0.0694805019157576
0.31141750972243815
0.13848463725408877
0.30090640905427274
0.23073239044049973
0.22091144832616277
0.24600354956088527
0.13206737233281038
0.20147138567545075
0.03483457171644458
0.2715705140441245
0.05447035904090485
0.14301742241449145
0.10673315670326784
0.1348522649510349
0.14325798470926251
0.17459942965232933
0.2846567699512789
0.27308338312258157
0.2756487612654394
0.3771541577003964
0.1807882768169098
0.2588685241573699
0.07303316271868572
0.1408305373544254
0.2788221625331088
0.1573212795752993
0.5271639903544253
0.1609890122450397
0.036199873989999826
0.08363962221906297
0.06784552929239845
0.07091454656920852
0.10335512906554839
0.1653729258418966
0.24831545513394973
0.1675826434327234
0.05265413435236015
0.15703643748529156
0.17476253971942668
0.13784895865747263
0.08320779897205052
0.228745859248757
0.1626326908955299
0.3355184845107004
0.24606326370094905
0.15659936824575166
0.28868053455267345
0.299713935959335
0.1256228517791424
0.15136288300907974
0.15726337874499904
0.2359969655067569
0.05740387729032141
0.07896633086813079
0.17331199593366872
0.08941036363687654
0.16396712039417444
0.4313437364159879
0.5133831297729323
0.20391670859603672
0.1522635476692156
0.09902754427610308
0.2119257387456799
0.20359459550535364
0.23580519247425163
0.12496889692811029
0.0776076567635698
0.20403442043638334
0.09849855303764343
0.1363590101664394
0.2490875831319327
0.2991868468809057
0.4000956399032922
0.19525810856856343
0.13858087565525132
0.25677076875998955
0.36731848454206284
0.23709452778915316
0.049721062846623726
0.15542957043268532
0.12274171615635686
0.1418922271040221
0.25991177261392795
0.40487587211675474
0.17118332538243602
0.17613431385073275
0.12842885833103998
0.0424341684821622
0.21486429500042328
0.1399734057232485
0.20303237265170887
0.28533173309033694
0.10232036946130021
0.13415041477489495
0.4208018558400141
0.25463118688743075
0.10575377817852201
0.14315820758512146
0.2862850529804723
0.29860285210632476
0.4983592783790418
0.07032946236797108
0.37436738644719897
0.3722672061102206
0.34688267059297356
0.297464755726846
0.12729386743329985
0.15109225578565139
0.1822883470982109
0.10971490296914065
0.2709108756396973
0.07207857788883881
0.08453499105846722
0.24189241106482395
0.19361218344990963
0.1368959821868718
0.2269212471200232
0.14679109487883574
0.38355806154467087
0.13452709341469665
0.2626203487518512
0.06979974840269408
0.30013057926171166
0.3653773550844199
0.1194610582617033
0.28436758017819985
0.11004314930532627
0.23191904490804252
0.60901228854287
0.29462460027292675
0.2613007267735
0.1519098684834907
0.29631512284800837
0.25900614399733113
0.15974633342519626
0.16699016691053759
0.2508406159715589
0.1857396936144626
0.17014988973330586
0.09397199316637844
0.1388574570294785
0.20794782909523465
0.20182260270736518
0.26524031074551935
0.1877313398186119
0.09764372787736599
0.21577306304297275
0.1037728492917934
0.13027441432788153
0.407340221015781
0.3374630881011525
0.28832317208604463
0.11786922918131156
0.15872605907909507
0.1554946050666945
0.18255692624291003
0.10261755214585591
0.2310525798787693
0.2050798927375738
0.08661929814945026
0.2511453477987056
0.3093318631303756
0.26341637500995696
0.12616637708441342
0.12865131934480484
0.07110257583710151
0.2026966654580389
0.11280523509066254
0.19387037964044762
0.16176435503128084
0.12922111851096388
0.135452294455027
0.48273552859571306
0.13884940223199607
0.07265209916104672
0.18046259779188295
0.1954069511191671
0.30061301096332455
0.06075946937677199
0.10990843862281433
0.1590740126890605
0.12457457858935032
0.14267626766944755
0.21289875388804283
0.22291729127140397
0.15042999548053598
0.16374953469672182
0.6258437620790719
0.15474955818676603
0.1262296206264642
0.21149627333919047
0.10640960318110627
0.31640961278891816
0.054841727631690686
0.19556797817467483
0.06874999403953552
0.0722962116244236
0.13780989091007406
0.10783883587146746
0.275812707148011
0.07829035253199758
0.3464148522251908
0.21742682015166642
0.18702288883286844
0.09368121184731905
0.11645180962311066
0.3382032164379681
0.11521569232285604
0.14102292877373526
0.1587743118176733
0.2404139450279004
0.3970155915067771
0.17949218551483007
0.18079970272602083
0.5662575685990963
0.24938229405450682
0.3367042433783933
0.09193272978709852
0.19865474843704348
0.13438031929177072
0.14106029473784912
0.12383718240259016
0.24777049546114277
0.1710124074055096
0.1281490565549474
0.18424236654564935
0.11287737845157103
0.16122478558790185
0.43936532583112653
0.5444496102661038
0.1660568184621136
0.14880032496429846
0.2578224839043601
0.16794702312448961
0.2543761340209801
0.09235624630537626
0.11808241655765621
0.10449264210200464
0.1463234296453422
0.05045046657323837
0.052893884925835535
0.13866328026900446
0.12337600350552792
0.3384969014447707
0.12542622465545403
0.07581300992417307
0.2668534768534022
0.1877213086038815
0.1760684466774156
0.1810811019924012
0.1515034468402031
0.18690142680961283
0.15627369188089218
0.04104392556254485
0.14518337610534976
0.11777902448170509
0.3036973026574628
0.39651822467223985
0.22779977161025536
0.10564604278527746
0.13559118759387734
0.3011832639958127
0.09588142307969928
0.27094728077009783
0.15474955818676603
0.07207208126783371
0.5050671398799038
0.10030179538493124
0.14138257983931363
0.14159857796449227
0.21066952860083604
0.1813761055114817
0.08625509410483546
0.06593097659637524
0.1543781389376473
0.10258591269236157
0.06384433191948638
0.41670274696563875
0.07660476089269391
0.12128328460868093
0.06646805227785565
0.13280847263652212
0.06431470420461617
0.24289473328657052
0.2408157517969831
0.34151962241052924
0.1844477832819222
0.04154351814634837
0.24762286886696863
0.10511527646509813
0.13448967946797188
0.10139049543551097
0.34803261445348943
0.281186484843928
0.04414852947106162
0.2249982639061667
0.16882223349279835
0.21349482592863311
0.25428305167504156
0.4621927250150942
0.10606758907450424
0.14978532340110248
0.2020548713811235
0.05945946723644524
0.16158629902945998
0.2809375042150595
0.11095779304971483
0.2211740455089361
0.00937497615814209
0.1419309439179013
0.25376760271275756
0.2335694325265663
0.25917210130988083
0.05941903708871637
0.09898167414828182
0.13770141038369366
0.2924736350832116
0.1342326561298708
0.14528541358209154
0.16620247018900286
0.0795211041030287
0.15138267073295833
0.21562300885324248
0.5801635271294151
0.1314090981920391
0.22471019821646582
0.2575300434405024
0.28644808725888254
0.21407414569837538
0.06740763015970687
0.1214735576056226
0.25272974396540804
0.4319829989086266
0.21112659475613688
0.2923927806912869
0.14811647238035688
0.11636007538778749
0.2139984142149041
0.24143951715641457
0.04995155091137904
0.2670689390838706
0.07760994553408627
0.19134207565838074
0.16433447843603108
0.15686679265589257
0.11264044291203877
0.16186919112130835
0.255767461029593
0.07051976385644174
0.1227921880483852
0.1179506973118962
0.25424542358515273
0.3772019443056868
0.04094769425098827
0.11261949385464427
0.10584643559332635
0.12306014866955706
0.1979213000722863
0.0907832738277066
0.0976441698634961
0.1907415398500493
0.1301010146658149
0.06834393260958906
0.09893198290925259
0.1729197814996963
0.025526625889995377
0.06336993126651166
0.057194920823192975
0.14759891892294846
0.17827029716136672
0.37865722758445386
0.26832893336885943
0.3110903328669074
0.1398279362006805
0.21656821371411233
0.2479821930296048
0.21554349939602313
0.23431091145360725
0.28964620138198705
0.2739191713274891
0.13238638462882998
0.12628102326320054
0.2000832812754349
0.032338247946376686
0.09694734222044163
0.13848463725408877
0.15307310742691996
0.21326139229414204
0.2720003100439204
0.14820220833992284
0.373241633842969
0.1328125298023224
0.16837907095031862
0.26972169133139634
0.16785138899320085
0.18346194053201936
0.16540609029693484
0.1712805473125798
0.13420931039845338
0.1731221786429804
0.07801547172761936
0.21649526597579422
0.09171122932274023
0.15007536850710576
0.07970405426182131
0.17729220341633437
0.31181215028129916
0.09786669152855436
0.12028399209642697
0.21633769383898824
0.20439113796743386
0.10223886620807147
0.10316245795132928
0.12662246186100923
0.18018090091436592
0.17362151557443511
0.2200523824342655
0.2193748224050311
0.06659049478925681
0.22357021891470844
0.0494481916057136
0.06726729869842529
0.703214385992338
0.4002399182086994
0.2968313825294495
0.21534978811499586
0.2418034740819575
0.20743324177309555
0.3446690238984208
0.1372013073833471
0.14894114656499696
0.15593468255254375
0.10538214206990221
0.2713124198919562
0.03470157920975981
0.17527211688740535
0.20648221829666338
0.15064132925154322
0.24287361245055275
0.09541936657085148
0.19504535323783648
0.1075830829687587
0.1649783803068435
0.38719681823193164
0.027384712736177506
0.1575124735046342
0.1567301086657247
0.15810380128360713
0.1892156291064531
0.0738068269000554
0.1452804423390992
0.37214298971373055
0.1663062633673713
0.22740310977984912
0.1302301067173062
0.18366596817101663
0.2628763964627235
0.10434897627807393
0.07647368896989407
0.18578029388210887
0.10708337324199811
0.12491153940601146
0.23207650887307468
0.2615948682882364
0.4442826346927973
0.34545711884975483
0.13059264768840118
0.13459938358548296
0.3861681648274628
0.24674996584218123
0.20309143980128613
0.16944832170077107
0.10925344768872966
0.11359574371441197
0.13977839786972807
0.2354310777360892
0.17089559927116454
0.08504938430463002
0.16955024378520708
0.03195679946263993
0.26298768147254564
0.14341228385025098
0.24652511175570715
0.14807240619797912
0.15433223478783212
0.17877739822915711
0.2751916199827103
0.22902184904589085
0.14695534644005828
0.28078111044354576
0.07308240101293267
0.1109444471182905
0.17303075022138345
0.1635005582456737
0.525220147671909
0.23939947178721985
0.20189495281383937
0.06726722570601851
0.4061445084333755
0.24012649951604692
0.18533185689586915
0.20128257659786952
0.18121165275841514
0.3153289137756452
0.22335978344746032
0.1417653169759996
0.13876768079882942
0.10445116611282963
0.17270555334155924
0.2781253873685047
0.198490238201513
0.051845740276734005
0.14101680324441623
0.16505634355308108
0.104628907496837
0.13748251732157135
0.15876815294458815
0.2561551965545283
0.1626774536999683
0.18826651223755897
0.19798791808392494
0.20510665055054314
0.2512243363968611
0.20085620879881483
0.05744720485906827
0.08550029444927397
0.1584945453080154
0.09780434147532939
0.20299636609999766
0.06827704460904035
0.14592958385639887
0.19167853027992268
0.10638620487858627
0.05607484860042763
0.06360751114035285
0.16228667740386699
0.12735459240072255
0.1394399208249256
0.06308347596733847
0.09273029119353969
0.26561396200827014
0.39796992067086084
0.15325148458814178
0.2586800983370858
0.2696224162609408
0.10913663998955646
0.24524925847109896
0.08223623261064286
0.11499451710242199
0.3257053843025215
0.2814349889231242
0.06311327728053755
0.0688283344040292
0.15038425078153672
0.266781816197126
0.25040116336756973
0.12879460959091485
0.13159683304857178
0.1016103626120295
0.0888851819090483
0.14607682227975352
0.1621476457479613
0.11991298741547167
0.20449017421986462
0.25685703943750554
0.2883046679877621
0.04920567948153077
0.25301867551402735
0.08643025404351477
0.15795212194971037
0.17220703939924067
0.22268014493693306
0.09924943940983794
0.11180316206131774
0.27241131258325063
0.09198905233976153
0.12203099860264056
0.14917318904694843
0.3041517974593213
0.11946104133052625
0.19516399962453643
0.22603466590977692
0.12866487859858322
0.3745105745694602
0.37978896982300514
0.11463288778955742
0.1215913202624016
0.12685200517758374
0.25145499895715206
0.27114441415263435
0.06706197674365773
0.3170919561557352
0.09133462804945079
0.13571168638317063
0.07323733384292497
0.18853333982761783
0.15140450600208644
0.17948139075652772
0.0664644974372539
0.10396189905425426
0.10678336591947077
0.2828877528252869
0.10264508527889964
0.1237215653287115
0.3225772336487845
0.15207818844246376
0.06711944092078789
0.08125001192092896
0.04973589009345978
0.1714822171810754
0.10944670857743789
0.18438543753912542
0.2150408186609462
0.32298538679707517
0.18748658831188114
0.15382432936371013
0.17562568398458073
0.2020851501406802
0.08711270042073739
0.42728459139118985
0.4211982317392873
0.13845241162443808
0.1444845635975449
0.4211013029492758
0.1905409585560826
0.19450804554337453
0.1279978064149011
0.13448010282840797
0.18449113800836142
0.29790235600131676
0.142940537899154
0.12461615517816828
0.12937478874418257
0.14236948103072664
0.17293039369761337
0.15081968388563963
0.16433427684947088
0.08392772293151579
0.11251486444197799
0.2841167981267128
0.43146786695478284
0.09872401527295059
0.11395741161125778
0.1393230226575979
0.2053486336446974
0.13965005492072458
0.24385374327045986
0.21565469232025394
0.10744853268000046
0.1314981473946453
0.09907728778541489
0.1814821974277727
0.1988794515465182
0.18872251776439863
0.14363890905360324
